<!-- icon666.com - MILLIONS vector ICONS FREE --><svg version="1.1" id="Capa_1" xmlns="http://www.w3.org/2000/svg" xmlns:xlink="http://www.w3.org/1999/xlink" x="0px" y="0px" viewBox="0 0 390.441 390.441" style="enable-background:new 0 0 390.441 390.441;" xml:space="preserve"><g><path d="M369.712,374.27c-12.052-47.445-47.718-210.305-0.633-313.894c0.048-0.104,0.054-0.213,0.101-0.316 c0.254-0.606,0.438-1.218,0.573-1.85c0.036-0.16,0.089-0.31,0.118-0.461c0.131-0.786,0.172-1.587,0.131-2.385 c-0.013-0.145-0.054-0.29-0.065-0.429c-0.071-0.644-0.189-1.279-0.384-1.909c-0.065-0.222-0.148-0.44-0.231-0.659 c-0.206-0.55-0.467-1.084-0.768-1.605c-0.071-0.127-0.106-0.277-0.195-0.417c-0.048-0.08-0.124-0.127-0.166-0.204 c-0.088-0.124-0.136-0.254-0.225-0.378L334.105,4.238C332.131,1.572,328.998,0,325.671,0H53.646c-3.939,0-7.554,2.202-9.351,5.713 L20.95,51.241c-0.104,0.201-0.145,0.414-0.242,0.618c-0.122,0.266-0.225,0.532-0.319,0.818c-0.171,0.503-0.299,1.011-0.384,1.525 c-0.047,0.242-0.101,0.479-0.127,0.727c-0.065,0.683-0.077,1.359-0.012,2.04c0.006,0.088-0.006,0.174,0,0.266 c0.092,0.762,0.281,1.519,0.535,2.252c0.023,0.059,0.023,0.121,0.042,0.18C70.181,195.002,35.168,335.578,23.25,375.44 c-0.683,2.299-1.954,6.572,1.259,10.828c1.98,2.631,5.098,4.173,8.384,4.173c0.047,0,0.095,0,0.139,0 c2.849-0.035,4.933-1.017,6.481-2.388h314.618c1.496,1.105,3.446,1.874,6.012,1.874c3.245,0,6.307-1.502,8.299-4.062 C371.615,381.782,370.646,377.958,369.712,374.27z M60.073,21.007h260.313l18.229,24.515H47.498L60.073,21.007z M47.43,367.035 C61.309,314.5,85.386,190.103,45.057,66.544h298.79c-37.558,101.36-11.16,242.648,2.458,300.491H47.43z M261.716,98.107 c0,3.183-0.939,6.123-2.512,8.641c9.126,37.14-24.512,73.394-62.134,78.492c-44.948,6.088-66.786-36.345-69.188-74.677 c-3.553-3.008-5.852-7.439-5.852-12.457c0-9.05,7.341-16.391,16.391-16.391c9.052,0,16.39,7.335,16.39,16.391 c0,7.767-5.405,14.229-12.652,15.923c2.701,27.86,16.228,59.438,48.826,57.677c28.941-1.563,59.513-28.2,55.558-57.332 c-0.401,0.024-0.804,0.121-1.223,0.121c-9.05,0-16.391-7.335-16.391-16.396c0-9.049,7.341-16.39,16.391-16.39 C254.375,81.723,261.716,89.058,261.716,98.107z"></path></g></svg>